<?xml version="1.0" encoding="UTF-8"?>
<svg id="Layer_2" data-name="Layer 2" xmlns="http://www.w3.org/2000/svg" viewBox="0 0 182.88 182.88">
  <defs>
    <style>
      .cls-1 {
        fill: #ed1c24;
      }

      .cls-2 {
        fill: #fff;
      }

      .cls-3 {
        fill: #fff200;
      }

      .cls-3, .cls-4 {
        stroke: #231f20;
        stroke-miterlimit: 10;
      }

      .cls-4 {
        fill: #231f20;
      }
    </style>
  </defs>
  <g id="Layer_1-2" data-name="Layer 1">
    <g>
      <circle class="cls-3" cx="91.44" cy="91.44" r="90.93"/>
      <circle class="cls-4" cx="86.18" cy="82.41" r="80.02"/>
      <polygon class="cls-1" points="96.54 61.51 86.03 53.68 75.33 61.25 79.53 48.84 69.02 41 82.13 41.16 86.32 28.74 90.23 41.26 103.34 41.41 92.64 48.99 96.54 61.51"/>
      <g>
        <path class="cls-2" d="M18.56,101.36c-1.08-.99-1.62-2.47-1.62-4.45v-12.57c0-1.98.54-3.46,1.62-4.45,1.08-.99,2.64-1.48,4.66-1.48h4.96v2.65h-5.31c-.86,0-1.56.26-2.1.77-.54.51-.8,1.13-.8,1.85v13.9c0,.72.27,1.34.8,1.85.53.51,1.23.77,2.1.77h5.31v2.65h-4.96c-2.03,0-3.58-.49-4.66-1.49Z"/>
        <path class="cls-2" d="M37.48,92.72v10.13h-3.04v-24.45h6.57c1.98,0,3.48.44,4.49,1.31,1.01.87,1.52,2.25,1.52,4.14v3.35c0,2.63-1.05,4.27-3.14,4.93l4.86,10.72h-3.32l-4.51-10.13h-3.42ZM43.36,81.61c-.41-.4-1.05-.59-1.94-.59h-3.95v9.08h3.95c.88,0,1.53-.2,1.94-.61.41-.41.61-1.05.61-1.94v-4.02c0-.88-.2-1.53-.61-1.92Z"/>
        <path class="cls-2" d="M66.12,78.4v2.55h-8.63v8h7.75v2.55h-7.75v8.8h8.63v2.55h-11.67v-24.45h11.67Z"/>
        <path class="cls-2" d="M83.43,101.36c-1.08.99-2.64,1.49-4.66,1.49h-4.96v-2.65h5.31c.86,0,1.56-.26,2.1-.77.53-.51.8-1.13.8-1.85v-3.63c0-.7-.18-1.26-.54-1.69-.36-.43-.9-.64-1.62-.64h-1.05c-1.72,0-3.09-.51-4.09-1.52-1-1.01-1.5-2.48-1.5-4.42v-1.33c0-1.98.54-3.46,1.62-4.45,1.08-.99,2.64-1.48,4.66-1.48h5v2.65h-5.34c-.86,0-1.56.26-2.1.77-.54.51-.8,1.13-.8,1.85v2.65c0,.72.23,1.32.7,1.8.46.48,1.07.72,1.82.72h1.05c1.65,0,2.94.48,3.86,1.43.92.95,1.38,2.4,1.38,4.33v2.3c0,1.98-.54,3.46-1.62,4.45Z"/>
        <path class="cls-2" d="M94.01,101.36c-1.08-.99-1.62-2.47-1.62-4.45v-12.57c0-1.98.54-3.46,1.62-4.45,1.08-.99,2.64-1.48,4.66-1.48h4.96v2.65h-5.31c-.86,0-1.56.26-2.09.77-.54.51-.8,1.13-.8,1.85v13.9c0,.72.27,1.34.8,1.85.53.51,1.23.77,2.09.77h5.31v2.65h-4.96c-2.03,0-3.58-.49-4.66-1.49Z"/>
        <path class="cls-2" d="M122.71,78.4v2.55h-8.63v8h7.75v2.55h-7.75v8.8h8.63v2.55h-11.67v-24.45h11.67Z"/>
        <path class="cls-2" d="M131.89,102.84h-2.83v-24.45h4.96l5.52,21.87v-21.87h2.83v24.45h-4.99l-5.49-21.87v21.87Z"/>
        <path class="cls-2" d="M153.06,102.84v-21.79h-5.55v-2.65h14.15v2.65h-5.55v21.79h-3.04Z"/>
      </g>
    </g>
  </g>
</svg>